<svg xmlns="http://www.w3.org/2000/svg" xmlns:xlink="http://www.w3.org/1999/xlink" width="500" zoomAndPan="magnify" viewBox="0 0 375 374.999991" height="500" preserveAspectRatio="xMidYMid meet" version="1.0"><path fill="#b4b4b4" d="M 187.5 0 C 143.144531 0 107.144531 37.800781 107.144531 84.375 C 107.53125 113.6875 122.652344 138.453125 138.394531 162.011719 C 120.847656 148.734375 101.351562 140.707031 80.355469 140.625 C 36 140.625 0 178.425781 0 225 C 0 271.574219 36 309.375 80.355469 309.375 C 116.289062 308.773438 145.027344 283.632812 173.269531 262.5 C 168.214844 325.625 157.9375 361.070312 98.214844 375 L 276.789062 375 C 217.066406 361.066406 206.785156 325.625 201.730469 262.5 C 229.644531 286.425781 258.921875 306.722656 294.644531 309.375 C 339 309.375 375 271.574219 375 225 C 375 178.425781 339 140.625 294.644531 140.625 C 273.113281 140.621094 254.511719 150.53125 236.609375 162.011719 C 254.421875 138.695312 266.148438 113.539062 267.859375 84.375 C 267.859375 37.800781 231.859375 0 187.5 0 Z M 187.5 0 " fill-opacity="1" fill-rule="nonzero"/></svg>